<svg id="Capa_1" enable-background="new 0 0 512 512" height="512" viewBox="0 0 512 512" width="512" xmlns="http://www.w3.org/2000/svg"><g><path d="m198.222 367.1 11.135 25.677c1.754 4.044 5.741 6.661 10.148 6.661h72.988c4.408 0 8.395-2.617 10.148-6.661l11.135-25.677z" fill="#9facba"/><path d="m313.772 367.097-11.129 25.678c-1.757 4.051-5.745 6.665-10.147 6.665h-22.981c4.402 0 8.391-2.614 10.147-6.665l11.139-25.678z" fill="#8d9ca8"/><path d="m438.361 512c22.471 0 40.688-18.217 40.688-40.688 0-21.215-16.238-38.629-36.962-40.511 0-.059.004-.118.004-.177 0-17.552-14.229-31.781-31.781-31.781-11.723 0-21.956 6.352-27.465 15.796-7.581-4.309-16.343-6.783-25.687-6.783-21.761 0-40.395 13.353-48.179 32.309-6.127-3.992-13.438-6.32-21.297-6.32-13.043 0-24.585 6.396-31.683 16.216-7.098-9.82-18.641-16.216-31.683-16.216-7.858 0-15.169 2.328-21.297 6.32-7.784-18.956-26.418-32.309-48.179-32.309-9.344 0-18.105 2.473-25.687 6.783-5.509-9.445-15.742-15.796-27.465-15.796-17.552 0-31.781 14.229-31.781 31.781 0 .059.004.118.004.177-20.724 1.883-36.962 19.297-36.962 40.511.001 22.471 18.218 40.688 40.689 40.688z" fill="#fdf6ec"/><path d="m479.05 471.312c0 19.86-14.229 36.404-33.056 39.969l3.744-3.89c3.512-4.167 6.185-9.054 7.785-14.272 4.574-14.922 3.448-36.621-11.776-45.218-2.377-1.342-4.913-2.378-7.499-3.241-3.751-1.251-7.606-2.124-11.447-3.045-2.545-.61-4.383-2.754-4.728-5.348-2.069-15.555-15.384-27.553-31.506-27.553-1.168 0-2.315.062-3.441.186 5.787-6.19 14.032-10.054 23.188-10.054 17.546 0 31.774 14.229 31.774 31.774v.176c20.719 1.891 36.962 19.302 36.962 40.516z" fill="#fef1da"/><path d="m183.716 161.621-64.68 75.074c-1.465 1.7-2.271 3.87-2.271 6.114v35.028c0 5.174 4.194 9.367 9.367 9.367h57.58z" fill="#596c76"/><path d="m328.287 161.621 64.681 75.074c1.465 1.7 2.271 3.87 2.271 6.114v35.028c0 5.174-4.194 9.367-9.367 9.367h-57.58z" fill="#596c76"/><path d="m395.241 242.805v35.029c0 5.177-4.195 9.372-9.372 9.372h-20.253c5.177 0 9.372-4.04 9.372-9.021v-33.738c0-2.16-.806-4.247-2.273-5.88l-44.432-49.661v-27.29l64.685 75.08c1.467 1.697 2.273 3.867 2.273 6.109z" fill="#465a61"/><path d="m291.643 30.554c-8.861-10.448-16.591-17.182-23.512-22.992-7.788-6.538-16.669-7.3-24.457-.762-6.921 5.81-11.083 10.031-19.943 20.478-5.607 6.611-9.802 12.025-18.083 23.311 0 0-5.002 4.07-6.115 6.214-11.13 21.45-16.956 45.476-16.956 69.961v214.325h73.422 73.422v-214.325c0-24.485-5.827-48.511-16.956-69.96-.66-1.273-4.244-2.244-4.942-3.498-4.64-8.343-9.629-15.382-15.88-22.752z" fill="#ee6161"/><path d="m329.416 126.764v205.774h-20.666v-202.622c0-35.06-12.317-69.16-35.339-95.891-8.866-10.292-17.69-18.383-24.613-24.107-2.253-1.87-4.815-3.193-7.492-3.968.424-.362.827-.703 1.23-1.044 7.781-6.541 19.147-6.541 26.928 0 6.923 5.807 15.748 14.022 24.613 24.469 23.022 27.155 35.339 61.792 35.339 97.389z" fill="#e94444"/><path d="m312.46 56.806h-112.921c5.046-9.745 11.189-18.945 18.383-27.424 8.846-10.429 17.656-18.635 24.57-24.443 7.817-6.566 19.199-6.566 27.016 0 6.914 5.808 15.724 14.014 24.57 24.443 7.193 8.479 13.336 17.679 18.382 27.424z" fill="#596c76"/><path d="m312.46 56.809h-22.991c-4.567-8.039-9.93-15.675-16.058-22.785-8.866-10.292-17.69-18.383-24.613-24.107-2.253-1.87-4.815-3.193-7.492-3.968.207-.186.413-.351.62-.527.186-.165.382-.331.568-.486 1.002-.847 2.077-1.581 3.183-2.222 4.614-2.674 10.322-3.365 15.472-2.067 6.45 1.626 11.135 6.404 15.728 10.792 6.004 5.735 11.842 11.59 17.2 17.945 3.113 3.692 6.07 7.47 8.772 11.448 3.495 5.146 6.743 10.458 9.611 15.977z" fill="#465a61"/><circle cx="255.999" cy="148.955" fill="#fdf6ec" r="42.07"/><path d="m298.066 148.96c0 23.229-18.827 42.066-42.066 42.066-11.573 0-22.061-4.681-29.666-12.245 3.823 1.147 7.884 1.767 12.09 1.767 23.229 0 42.066-18.837 42.066-42.066 0-11.666-4.743-22.216-12.4-29.832 17.348 5.187 29.976 21.276 29.976 40.31z" fill="#fef1da"/><path d="m332.347 369.368h-152.695c-5.687 0-10.297-4.61-10.297-10.297v-16.241c0-5.687 4.61-10.297 10.297-10.297h152.694c5.687 0 10.297 4.61 10.297 10.297v16.241c0 5.687-4.61 10.297-10.296 10.297z" fill="#596c76"/><path d="m342.643 342.83v16.244c0 5.683-4.609 10.292-10.292 10.292h-20.666c5.683 0 10.292-4.609 10.292-10.292v-16.244c0-5.683-4.609-10.292-10.292-10.292h20.666c5.683 0 10.292 4.608 10.292 10.292z" fill="#465a61"/><g><g><g><path d="m87.723 376.206c-4.142 0-7.5-3.358-7.5-7.5v-45.876c0-4.142 3.358-7.5 7.5-7.5s7.5 3.358 7.5 7.5v45.876c0 4.142-3.358 7.5-7.5 7.5z" fill="#9facba"/></g><g><path d="m121.006 346.521c-4.142 0-7.5-3.358-7.5-7.5v-16.191c0-4.142 3.358-7.5 7.5-7.5s7.5 3.358 7.5 7.5v16.191c0 4.143-3.358 7.5-7.5 7.5z" fill="#9facba"/></g></g><g><g><path d="m424.275 376.206c-4.142 0-7.5-3.358-7.5-7.5v-45.876c0-4.142 3.358-7.5 7.5-7.5s7.5 3.358 7.5 7.5v45.876c0 4.142-3.358 7.5-7.5 7.5z" fill="#9facba"/></g><g><path d="m390.993 346.521c-4.142 0-7.5-3.358-7.5-7.5v-16.191c0-4.142 3.358-7.5 7.5-7.5s7.5 3.358 7.5 7.5v16.191c0 4.143-3.358 7.5-7.5 7.5z" fill="#9facba"/></g></g></g><g><path d="m91.385 487.514c-1.166 0-2.349-.272-3.455-.848-5.581-2.903-10.162-7.346-13.248-12.851-2.131-3.8-3.456-7.91-3.935-12.212-.458-4.117 2.508-7.825 6.625-8.284s7.825 2.508 8.284 6.625c.255 2.296.965 4.494 2.11 6.535 1.654 2.95 4.104 5.329 7.086 6.88 3.675 1.911 5.104 6.44 3.193 10.115-1.336 2.568-3.951 4.04-6.66 4.04z" fill="#ead8be"/></g><g><path d="m362.893 478.177c-4.047 0-7.381-3.224-7.493-7.294-.063-2.31-.587-4.56-1.558-6.688-1.403-3.078-3.647-5.653-6.489-7.447-3.503-2.211-4.55-6.843-2.339-10.345 2.21-3.502 6.842-4.551 10.345-2.339 5.318 3.357 9.514 8.167 12.131 13.909 1.808 3.966 2.785 8.171 2.903 12.499.114 4.141-3.151 7.589-7.292 7.703-.069.001-.139.002-.208.002z" fill="#ead8be"/></g></g></svg>